<?xml version="1.0" encoding="iso-8859-1"?>
<!-- Generator: Adobe Illustrator 19.0.0, SVG Export Plug-In . SVG Version: 6.00 Build 0)  -->
<svg version="1.1" id="down-arrow-svg" xmlns="http://www.w3.org/2000/svg" xmlns:xlink="http://www.w3.org/1999/xlink" x="0px" y="0px"
	 viewBox="0 0 453.834 453.834" style="enable-background:new 0 0 453.834 453.834;" xml:space="preserve">
<g>
	<g>
		<g>
			<g>
				<path d="M226.932,0C101.625,0,0.03,101.595,0.03,226.902C0,352.269,101.595,453.834,226.932,453.834
					c125.307,0,226.871-101.595,226.871-226.902C453.834,101.595,352.239,0,226.932,0z M226.932,423.465
					c-108.344,0-196.502-88.158-196.502-196.502S118.588,30.46,226.932,30.46c108.344-0.03,196.472,88.128,196.472,196.502
					C423.434,335.276,335.276,423.465,226.932,423.465z"/>
				<path d="M313.723,177.199l-87.885,87.915l-87.885-87.915c-5.928-5.928-15.565-5.928-21.492,0
					s-5.928,15.565,0,21.492l98.585,98.585c2.979,3.04,6.901,4.438,10.792,4.438c3.922,0,7.813-1.49,10.792-4.438l98.555-98.585
					c5.928-5.928,5.928-15.565,0-21.492S319.65,171.271,313.723,177.199z"/>
			</g>
		</g>
	</g>
	<g>
	</g>
	<g>
	</g>
	<g>
	</g>
	<g>
	</g>
	<g>
	</g>
	<g>
	</g>
	<g>
	</g>
	<g>
	</g>
	<g>
	</g>
	<g>
	</g>
	<g>
	</g>
	<g>
	</g>
	<g>
	</g>
	<g>
	</g>
	<g>
	</g>
</g>
<g>
</g>
<g>
</g>
<g>
</g>
<g>
</g>
<g>
</g>
<g>
</g>
<g>
</g>
<g>
</g>
<g>
</g>
<g>
</g>
<g>
</g>
<g>
</g>
<g>
</g>
<g>
</g>
<g>
</g>
</svg>
